<?xml version="1.0" encoding="utf-8"?>
<!-- Generator: Adobe Illustrator 16.0.4, SVG Export Plug-In . SVG Version: 6.00 Build 0)  -->
<!DOCTYPE svg PUBLIC "-//W3C//DTD SVG 1.1//EN" "http://www.w3.org/Graphics/SVG/1.1/DTD/svg11.dtd">
<svg version="1.1" id="Capa_1" xmlns="http://www.w3.org/2000/svg" xmlns:xlink="http://www.w3.org/1999/xlink" x="0px" y="0px"
	 width="100px" height="100px" viewBox="0 0 100 100" enable-background="new 0 0 100 100" xml:space="preserve">
<g id="Layer_8">
	<path d="M80.49,20.161V79.84c0,1.23-0.656,2.368-1.723,2.984c-1.067,0.615-2.379,0.615-3.445,0l-35.76-29.84
		c-1.066-0.614-1.724-1.752-1.724-2.983c0-1.231,0.657-2.369,1.724-2.984l35.76-29.839c0.533-0.308,1.128-0.461,1.723-0.461
		c0.596,0,1.189,0.154,1.723,0.461C79.834,17.792,80.49,18.93,80.49,20.161z M32.257,16.75H20.889c-0.762,0-1.379,0.617-1.379,1.378
		V81.87c0,0.761,0.617,1.378,1.379,1.378h11.368c0.761,0,1.378-0.617,1.378-1.378V18.129C33.635,17.368,33.018,16.75,32.257,16.75z"
		/>
</g>
</svg>
