<?xml version="1.0" encoding="utf-8"?>
<!-- Generator: Adobe Illustrator 16.0.4, SVG Export Plug-In . SVG Version: 6.00 Build 0)  -->
<!DOCTYPE svg PUBLIC "-//W3C//DTD SVG 1.1//EN" "http://www.w3.org/Graphics/SVG/1.1/DTD/svg11.dtd">
<svg version="1.1" id="Capa_1" xmlns="http://www.w3.org/2000/svg" xmlns:xlink="http://www.w3.org/1999/xlink" x="0px" y="0px"
	 width="100px" height="100px" viewBox="0 0 100 100" enable-background="new 0 0 100 100" xml:space="preserve">
<g id="Layer_8">
	<path d="M21.232,17.177c0.533-0.308,1.128-0.462,1.723-0.462c0.596,0,1.189,0.154,1.723,0.462l35.761,29.839
		c1.064,0.615,1.723,1.753,1.723,2.984c0,1.23-0.657,2.368-1.723,2.982L24.678,82.823c-1.065,0.614-2.379,0.614-3.445,0
		c-1.066-0.616-1.723-1.755-1.723-2.984V20.16C19.51,18.93,20.166,17.792,21.232,17.177z M66.365,18.129v63.742
		c0,0.761,0.617,1.378,1.378,1.378h11.368c0.762,0,1.379-0.617,1.379-1.378V18.129c0-0.762-0.617-1.379-1.379-1.379H67.743
		C66.982,16.75,66.365,17.367,66.365,18.129z"/>
</g>
</svg>
